<svg xmlns="http://www.w3.org/2000/svg" xmlns:xlink="http://www.w3.org/1999/xlink" width="1080" zoomAndPan="magnify" viewBox="0 0 810 809.999993" height="1080" preserveAspectRatio="xMidYMid meet" version="1.2"><defs><clipPath id="1b02554d59"><path d="M 41.558594 95.445312 L 768.859375 95.445312 L 768.859375 247.1875 L 41.558594 247.1875 Z M 41.558594 95.445312 "/></clipPath><clipPath id="b8f8e77080"><path d="M 79.058594 95.445312 L 730.941406 95.445312 C 740.886719 95.445312 750.425781 99.394531 757.457031 106.429688 C 764.488281 113.460938 768.441406 123 768.441406 132.945312 L 768.441406 209.6875 C 768.441406 219.632812 764.488281 229.171875 757.457031 236.203125 C 750.425781 243.238281 740.886719 247.1875 730.941406 247.1875 L 79.058594 247.1875 C 69.113281 247.1875 59.574219 243.238281 52.542969 236.203125 C 45.511719 229.171875 41.558594 219.632812 41.558594 209.6875 L 41.558594 132.945312 C 41.558594 123 45.511719 113.460938 52.542969 106.429688 C 59.574219 99.394531 69.113281 95.445312 79.058594 95.445312 Z M 79.058594 95.445312 "/></clipPath><clipPath id="e9659ff27f"><path d="M 41.558594 322.976562 L 768.859375 322.976562 L 768.859375 474.71875 L 41.558594 474.71875 Z M 41.558594 322.976562 "/></clipPath><clipPath id="8e9e240fd6"><path d="M 79.058594 322.976562 L 730.941406 322.976562 C 740.886719 322.976562 750.425781 326.925781 757.457031 333.960938 C 764.488281 340.992188 768.441406 350.53125 768.441406 360.476562 L 768.441406 437.21875 C 768.441406 447.164062 764.488281 456.703125 757.457031 463.734375 C 750.425781 470.769531 740.886719 474.71875 730.941406 474.71875 L 79.058594 474.71875 C 69.113281 474.71875 59.574219 470.769531 52.542969 463.734375 C 45.511719 456.703125 41.558594 447.164062 41.558594 437.21875 L 41.558594 360.476562 C 41.558594 350.53125 45.511719 340.992188 52.542969 333.960938 C 59.574219 326.925781 69.113281 322.976562 79.058594 322.976562 Z M 79.058594 322.976562 "/></clipPath><clipPath id="ad42ea2a71"><path d="M 41.558594 562.8125 L 768.859375 562.8125 L 768.859375 714.554688 L 41.558594 714.554688 Z M 41.558594 562.8125 "/></clipPath><clipPath id="44cc642a46"><path d="M 79.058594 562.8125 L 730.941406 562.8125 C 740.886719 562.8125 750.425781 566.761719 757.457031 573.796875 C 764.488281 580.828125 768.441406 590.367188 768.441406 600.3125 L 768.441406 677.054688 C 768.441406 687 764.488281 696.539062 757.457031 703.570312 C 750.425781 710.605469 740.886719 714.554688 730.941406 714.554688 L 79.058594 714.554688 C 69.113281 714.554688 59.574219 710.605469 52.542969 703.570312 C 45.511719 696.539062 41.558594 687 41.558594 677.054688 L 41.558594 600.3125 C 41.558594 590.367188 45.511719 580.828125 52.542969 573.796875 C 59.574219 566.761719 69.113281 562.8125 79.058594 562.8125 Z M 79.058594 562.8125 "/></clipPath></defs><g id="0860229ac6"><g clip-rule="nonzero" clip-path="url(#1b02554d59)"><g clip-rule="nonzero" clip-path="url(#b8f8e77080)"><path style=" stroke:none;fill-rule:nonzero;fill:#ffffff;fill-opacity:1;" d="M 41.558594 95.445312 L 768.265625 95.445312 L 768.265625 247.1875 L 41.558594 247.1875 Z M 41.558594 95.445312 "/></g></g><g clip-rule="nonzero" clip-path="url(#e9659ff27f)"><g clip-rule="nonzero" clip-path="url(#8e9e240fd6)"><path style=" stroke:none;fill-rule:nonzero;fill:#ffffff;fill-opacity:1;" d="M 41.558594 322.976562 L 768.265625 322.976562 L 768.265625 474.71875 L 41.558594 474.71875 Z M 41.558594 322.976562 "/></g></g><g clip-rule="nonzero" clip-path="url(#ad42ea2a71)"><g clip-rule="nonzero" clip-path="url(#44cc642a46)"><path style=" stroke:none;fill-rule:nonzero;fill:#ffffff;fill-opacity:1;" d="M 41.558594 562.8125 L 768.265625 562.8125 L 768.265625 714.554688 L 41.558594 714.554688 Z M 41.558594 562.8125 "/></g></g></g></svg>