<svg xmlns="http://www.w3.org/2000/svg" xmlns:xlink="http://www.w3.org/1999/xlink" width="1080" zoomAndPan="magnify" viewBox="0 0 810 809.999993" height="1080" preserveAspectRatio="xMidYMid meet" version="1.2"><defs><clipPath id="2a2a82aa1d"><path d="M 52.523438 24 L 757 24 L 757 783 L 52.523438 783 Z M 52.523438 24 "/></clipPath></defs><g id="100125dffa"><g clip-rule="nonzero" clip-path="url(#2a2a82aa1d)"><path style=" stroke:none;fill-rule:nonzero;fill:#ffffff;fill-opacity:1;" d="M 740.769531 149.457031 C 729.828125 138.515625 717.792969 133.046875 702.472656 133.046875 L 648.859375 133.046875 L 648.859375 92.5625 C 648.859375 73.960938 642.292969 58.640625 629.164062 44.417969 C 616.03125 31.285156 599.621094 24.722656 581.019531 24.722656 L 553.664062 24.722656 C 535.0625 24.722656 519.742188 31.285156 505.519531 44.417969 C 492.390625 57.546875 485.824219 73.960938 485.824219 92.5625 L 485.824219 133.046875 L 323.882812 133.046875 L 323.882812 92.5625 C 323.882812 73.960938 317.320312 58.640625 304.1875 44.417969 C 291.058594 31.285156 274.644531 24.722656 256.042969 24.722656 L 228.691406 24.722656 C 210.089844 24.722656 194.769531 31.285156 180.546875 44.417969 C 167.414062 57.546875 160.851562 73.960938 160.851562 92.5625 L 160.851562 133.046875 L 107.234375 133.046875 C 93.011719 133.046875 79.878906 138.515625 68.9375 149.457031 C 57.996094 160.402344 52.527344 172.4375 52.527344 187.753906 L 52.527344 728.285156 C 52.527344 742.511719 57.996094 755.640625 68.9375 766.582031 C 79.878906 777.523438 91.917969 782.996094 107.234375 782.996094 L 701.378906 782.996094 C 715.605469 782.996094 728.734375 777.523438 739.675781 766.582031 C 750.617188 755.640625 756.089844 743.605469 756.089844 728.285156 L 756.089844 187.753906 C 757.183594 172.4375 751.710938 160.402344 740.769531 149.457031 Z M 540.535156 106.785156 L 594.148438 106.785156 L 594.148438 191.039062 L 540.535156 191.039062 Z M 216.652344 106.785156 L 270.269531 106.785156 L 270.269531 191.039062 L 216.652344 191.039062 Z M 702.472656 727.191406 L 108.328125 727.191406 L 108.328125 294.988281 L 702.472656 294.988281 Z M 702.472656 727.191406 "/></g><path style=" stroke:none;fill-rule:nonzero;fill:#ffffff;fill-opacity:1;" d="M 368.746094 648.410156 C 372.027344 650.597656 375.3125 651.691406 378.59375 651.691406 C 381.875 651.691406 385.160156 650.597656 388.441406 648.410156 L 603.996094 432.855469 C 606.183594 429.570312 607.277344 426.289062 607.277344 423.007812 C 607.277344 419.722656 606.183594 416.441406 603.996094 414.253906 L 584.300781 394.558594 C 582.113281 392.371094 578.832031 391.273438 575.546875 391.273438 C 572.265625 391.273438 568.984375 392.371094 565.699219 394.558594 L 378.59375 581.664062 L 285.585938 488.660156 C 282.304688 486.46875 279.023438 485.375 275.738281 485.375 C 272.457031 485.375 269.175781 486.46875 266.984375 488.660156 L 247.292969 508.355469 C 245.101562 510.542969 244.007812 513.824219 244.007812 517.105469 C 244.007812 520.390625 245.101562 523.671875 247.292969 526.953125 Z M 368.746094 648.410156 "/></g></svg>