<svg xmlns="http://www.w3.org/2000/svg" xmlns:xlink="http://www.w3.org/1999/xlink" width="1080" zoomAndPan="magnify" viewBox="0 0 810 809.999993" height="1080" preserveAspectRatio="xMidYMid meet" version="1.2"><defs><clipPath id="6b29cc23e8"><path d="M 4.429688 26 L 805.429688 26 L 805.429688 427 L 4.429688 427 Z M 4.429688 26 "/></clipPath></defs><g id="49c3b9d10d"><path style=" stroke:none;fill-rule:nonzero;fill:#ffffff;fill-opacity:1;" d="M 686.136719 411.238281 Z M 686.136719 411.238281 L 405.019531 162.273438 L 123.726562 411.34375 L 123.726562 767.242188 C 123.726562 776.433594 131.15625 783.808594 140.347656 783.808594 L 316.136719 783.808594 L 316.136719 627.761719 C 316.136719 618.570312 323.511719 611.140625 332.703125 611.140625 L 477.148438 611.140625 C 486.339844 611.140625 493.714844 618.570312 493.714844 627.761719 L 493.714844 783.808594 L 669.558594 783.808594 C 678.75 783.808594 686.125 776.433594 686.125 767.242188 L 686.125 411.222656 Z M 123.726562 411.347656 Z M 123.726562 411.347656 "/><g clip-rule="nonzero" clip-path="url(#6b29cc23e8)"><path style=" stroke:none;fill-rule:nonzero;fill:#ffffff;fill-opacity:1;" d="M 403.378906 26.019531 L 4.433594 379.261719 L 46.457031 426.671875 L 405.015625 109.171875 L 763.488281 426.671875 L 805.429688 379.261719 L 406.570312 26.019531 L 405.019531 27.816406 L 403.386719 26.019531 Z M 403.378906 26.019531 "/></g><path style=" stroke:none;fill-rule:nonzero;fill:#ffffff;fill-opacity:1;" d="M 123.726562 76.871094 L 224.859375 76.871094 L 223.980469 136.769531 L 123.726562 227.335938 Z M 123.726562 76.871094 "/></g></svg>