<svg xmlns="http://www.w3.org/2000/svg" xmlns:xlink="http://www.w3.org/1999/xlink" width="1080" zoomAndPan="magnify" viewBox="0 0 810 809.999993" height="1080" preserveAspectRatio="xMidYMid meet" version="1.2"><defs><clipPath id="5dbc694d1b"><path d="M 109 51.921875 L 701 51.921875 L 701 810 L 109 810 Z M 109 51.921875 "/></clipPath></defs><g id="fa35b0175c"><g clip-rule="nonzero" clip-path="url(#5dbc694d1b)"><path style=" stroke:none;fill-rule:nonzero;fill:#ffffff;fill-opacity:1;" d="M 678.492188 592.089844 C 690.644531 592.089844 700.726562 582.011719 700.726562 569.855469 L 700.726562 74.15625 C 700.726562 62.003906 690.644531 51.921875 678.492188 51.921875 L 249.5 51.921875 C 173.304688 51.921875 111.640625 113.886719 111.640625 189.78125 L 111.640625 631.523438 C 110.15625 638.933594 109.269531 646.34375 109.269531 654.054688 C 109.269531 712.753906 157 760.484375 215.699219 760.484375 L 235.269531 760.484375 L 235.269531 792.207031 C 235.269531 799.027344 239.417969 804.957031 245.347656 807.328125 C 251.574219 809.996094 258.6875 808.515625 263.433594 803.769531 L 306.71875 760.484375 L 313.238281 760.484375 L 357.710938 804.957031 C 360.972656 808.21875 365.121094 809.699219 369.273438 809.699219 C 371.347656 809.699219 373.421875 809.402344 375.5 808.515625 C 381.722656 805.847656 385.578125 799.917969 385.578125 793.394531 L 385.578125 760.78125 L 678.492188 760.78125 C 690.644531 760.78125 700.726562 750.703125 700.726562 738.546875 C 700.726562 726.390625 690.644531 716.3125 678.492188 716.3125 L 618.605469 716.3125 L 618.605469 592.386719 L 678.492188 592.386719 Z M 574.132812 716.015625 L 385.578125 716.015625 L 385.578125 660.28125 C 385.578125 651.089844 378.167969 643.675781 368.976562 643.675781 L 251.277344 643.675781 C 242.085938 643.675781 234.675781 651.089844 234.675781 660.28125 L 234.675781 716.015625 L 215.109375 716.015625 C 181.015625 716.015625 153.144531 688.148438 153.144531 654.054688 C 153.144531 648.125 154.035156 642.492188 155.515625 637.15625 C 155.8125 636.5625 155.8125 635.671875 156.109375 635.078125 C 156.703125 633.597656 157.296875 632.113281 157.890625 630.335938 C 157.890625 630.039062 157.890625 630.039062 158.1875 629.742188 C 164.410156 614.917969 176.269531 603.058594 191.09375 596.835938 C 191.09375 596.835938 191.09375 596.835938 191.390625 596.835938 C 193.167969 596.242188 194.652344 595.648438 196.429688 595.054688 C 196.726562 595.054688 197.320312 594.757812 197.617188 594.757812 C 199.097656 594.460938 200.285156 593.871094 201.765625 593.574219 C 202.359375 593.574219 202.953125 593.277344 203.546875 593.277344 C 205.027344 592.980469 206.214844 592.683594 207.695312 592.683594 C 208.289062 592.683594 208.882812 592.386719 209.476562 592.386719 C 211.550781 592.089844 213.328125 592.089844 215.40625 592.089844 L 574.132812 592.089844 Z M 574.132812 716.015625 "/></g></g></svg>