<svg xmlns="http://www.w3.org/2000/svg" xmlns:xlink="http://www.w3.org/1999/xlink" width="1920" zoomAndPan="magnify" viewBox="0 0 1440 809.999993" height="1080" preserveAspectRatio="xMidYMid meet" version="1.2"><defs><clipPath id="f77e9595f3"><path d="M 917.847656 126.976562 L 1413 126.976562 L 1413 590.390625 L 917.847656 590.390625 Z M 917.847656 126.976562 "/></clipPath><clipPath id="4795f51f9c"><path d="M 1165.046875 126.976562 C 1028.523438 126.976562 917.847656 230.714844 917.847656 358.683594 C 917.847656 486.652344 1028.523438 590.390625 1165.046875 590.390625 C 1301.574219 590.390625 1412.25 486.652344 1412.25 358.683594 C 1412.25 230.714844 1301.574219 126.976562 1165.046875 126.976562 Z M 1165.046875 126.976562 "/></clipPath></defs><g id="46ec251c8a"><g clip-rule="nonzero" clip-path="url(#f77e9595f3)"><g clip-rule="nonzero" clip-path="url(#4795f51f9c)"><path style=" stroke:none;fill-rule:nonzero;fill:#ffffff;fill-opacity:1;" d="M 917.847656 126.976562 L 1412.035156 126.976562 L 1412.035156 590.390625 L 917.847656 590.390625 Z M 917.847656 126.976562 "/></g></g><g style="fill:#ffffff;fill-opacity:1;"><g transform="translate(21.344708, 455.799236)"><path style="stroke:none" d="M 82.34375 -143.796875 C 88.195312 -157.566406 97.171875 -168.128906 109.265625 -175.484375 C 121.367188 -182.835938 135.96875 -187.144531 153.0625 -188.40625 L 153.0625 -123.625 C 148.3125 -125.363281 142.851562 -126.234375 136.6875 -126.234375 C 130.039062 -126.234375 123.710938 -125.363281 117.703125 -123.625 C 111.691406 -122.050781 105.992188 -118.890625 100.609375 -114.140625 C 95.234375 -109.390625 90.84375 -103.296875 87.4375 -95.859375 C 84.039062 -88.429688 82.34375 -80.128906 82.34375 -70.953125 L 82.34375 0 L 23.5 0 L 23.5 -182.484375 L 82.34375 -182.484375 Z M 82.34375 -143.796875 "/></g></g><g style="fill:#ffffff;fill-opacity:1;"><g transform="translate(186.007324, 455.799236)"><path style="stroke:none" d="M 200.046875 -91.125 C 200.046875 -86.375 199.804688 -81.46875 199.328125 -76.40625 L 73.5625 -76.40625 C 76.09375 -67.550781 81.269531 -60.429688 89.09375 -55.046875 C 96.925781 -49.671875 106.859375 -46.984375 118.890625 -46.984375 C 126.484375 -46.984375 135.179688 -47.972656 144.984375 -49.953125 C 154.796875 -51.929688 163.816406 -54.660156 172.046875 -58.140625 L 188.40625 -11.390625 C 180.5 -6.484375 170.375 -2.367188 158.03125 0.953125 C 145.695312 4.273438 132.09375 5.9375 117.21875 5.9375 C 93.65625 5.9375 74 1.625 58.25 -7 C 42.507812 -15.625 30.84375 -27.210938 23.25 -41.765625 C 15.65625 -56.316406 11.859375 -72.769531 11.859375 -91.125 C 11.859375 -109.46875 15.535156 -125.992188 22.890625 -140.703125 C 30.253906 -155.421875 41.210938 -167.050781 55.765625 -175.59375 C 70.316406 -184.132812 88.035156 -188.40625 108.921875 -188.40625 C 128.222656 -188.40625 144.675781 -184.566406 158.28125 -176.890625 C 171.882812 -169.222656 182.242188 -158.113281 189.359375 -143.5625 C 196.484375 -129.007812 200.046875 -111.53125 200.046875 -91.125 Z M 138.34375 -111.765625 C 138.34375 -116.191406 137.113281 -120.695312 134.65625 -125.28125 C 132.207031 -129.875 128.53125 -133.671875 123.625 -136.671875 C 118.726562 -139.679688 112.796875 -141.1875 105.828125 -141.1875 C 99.972656 -141.1875 94.554688 -139.644531 89.578125 -136.5625 C 84.597656 -133.476562 80.679688 -129.640625 77.828125 -125.046875 C 74.984375 -120.460938 73.5625 -116.035156 73.5625 -111.765625 Z M 138.34375 -111.765625 "/></g></g><g style="fill:#ffffff;fill-opacity:1;"><g transform="translate(397.885839, 455.799236)"><path style="stroke:none" d="M 153.0625 0 L 153.0625 -15.421875 C 145.9375 -8.617188 137.90625 -3.359375 128.96875 0.359375 C 120.03125 4.078125 110.421875 5.9375 100.140625 5.9375 C 84.003906 5.9375 69.210938 1.585938 55.765625 -7.109375 C 42.316406 -15.816406 31.632812 -27.601562 23.71875 -42.46875 C 15.8125 -57.34375 11.859375 -73.5625 11.859375 -91.125 C 11.859375 -108.84375 15.773438 -125.132812 23.609375 -140 C 31.441406 -154.875 42.117188 -166.660156 55.640625 -175.359375 C 69.171875 -184.054688 84.003906 -188.40625 100.140625 -188.40625 C 110.421875 -188.40625 120.03125 -186.546875 128.96875 -182.828125 C 137.90625 -179.117188 145.9375 -173.863281 153.0625 -167.0625 L 153.0625 -182.484375 L 211.90625 -182.484375 L 211.90625 0 Z M 111.765625 -46.984375 C 119.203125 -46.984375 126.082031 -48.957031 132.40625 -52.90625 C 138.738281 -56.863281 143.765625 -62.242188 147.484375 -69.046875 C 151.203125 -75.847656 153.0625 -83.207031 153.0625 -91.125 C 153.0625 -99.1875 151.203125 -106.578125 147.484375 -113.296875 C 143.765625 -120.023438 138.738281 -125.367188 132.40625 -129.328125 C 126.082031 -133.285156 119.203125 -135.265625 111.765625 -135.265625 C 104.328125 -135.265625 97.441406 -133.285156 91.109375 -129.328125 C 84.785156 -125.367188 79.804688 -120.023438 76.171875 -113.296875 C 72.535156 -106.578125 70.71875 -99.1875 70.71875 -91.125 C 70.71875 -83.207031 72.535156 -75.847656 76.171875 -69.046875 C 79.804688 -62.242188 84.785156 -56.863281 91.109375 -52.90625 C 97.441406 -48.957031 104.328125 -46.984375 111.765625 -46.984375 Z M 111.765625 -46.984375 "/></g></g><g style="fill:#ffffff;fill-opacity:1;"><g transform="translate(633.253656, 455.799236)"><path style="stroke:none" d="M 100.140625 -188.40625 C 110.421875 -188.40625 120.03125 -186.546875 128.96875 -182.828125 C 137.90625 -179.117188 145.9375 -173.863281 153.0625 -167.0625 L 153.0625 -258.890625 L 211.90625 -258.890625 L 211.90625 0 L 153.0625 0 L 153.0625 -15.421875 C 145.9375 -8.617188 137.90625 -3.359375 128.96875 0.359375 C 120.03125 4.078125 110.421875 5.9375 100.140625 5.9375 C 84.003906 5.9375 69.210938 1.585938 55.765625 -7.109375 C 42.316406 -15.816406 31.632812 -27.601562 23.71875 -42.46875 C 15.8125 -57.34375 11.859375 -73.5625 11.859375 -91.125 C 11.859375 -108.84375 15.773438 -125.132812 23.609375 -140 C 31.441406 -154.875 42.117188 -166.660156 55.640625 -175.359375 C 69.171875 -184.054688 84.003906 -188.40625 100.140625 -188.40625 Z M 111.765625 -46.984375 C 119.203125 -46.984375 126.082031 -48.957031 132.40625 -52.90625 C 138.738281 -56.863281 143.765625 -62.242188 147.484375 -69.046875 C 151.203125 -75.847656 153.0625 -83.207031 153.0625 -91.125 C 153.0625 -99.1875 151.203125 -106.578125 147.484375 -113.296875 C 143.765625 -120.023438 138.738281 -125.367188 132.40625 -129.328125 C 126.082031 -133.285156 119.203125 -135.265625 111.765625 -135.265625 C 104.328125 -135.265625 97.441406 -133.285156 91.109375 -129.328125 C 84.785156 -125.367188 79.804688 -120.023438 76.171875 -113.296875 C 72.535156 -106.578125 70.71875 -99.1875 70.71875 -91.125 C 70.71875 -83.207031 72.535156 -75.847656 76.171875 -69.046875 C 79.804688 -62.242188 84.785156 -56.863281 91.109375 -52.90625 C 97.441406 -48.957031 104.328125 -46.984375 111.765625 -46.984375 Z M 111.765625 -46.984375 "/></g></g><g style="fill:#7a987d;fill-opacity:1;"><g transform="translate(965.646436, 444.470582)"><path style="stroke:none" d="M 99.921875 -168.4375 C 117.023438 -168.4375 132.398438 -164.582031 146.046875 -156.875 C 159.703125 -149.164062 170.347656 -138.664062 177.984375 -125.375 C 185.617188 -112.082031 189.4375 -97.441406 189.4375 -81.453125 C 189.4375 -65.472656 185.648438 -50.867188 178.078125 -37.640625 C 170.515625 -24.421875 159.941406 -13.957031 146.359375 -6.25 C 132.785156 1.445312 117.304688 5.296875 99.921875 5.296875 C 81.953125 5.296875 66.179688 1.445312 52.609375 -6.25 C 39.035156 -13.957031 28.640625 -24.390625 21.421875 -37.546875 C 14.210938 -50.703125 10.609375 -65.335938 10.609375 -81.453125 C 10.609375 -97.578125 14.175781 -112.25 21.3125 -125.46875 C 28.457031 -138.695312 38.78125 -149.164062 52.28125 -156.875 C 65.789062 -164.582031 81.671875 -168.4375 99.921875 -168.4375 Z M 99.921875 -42 C 106.566406 -42 112.71875 -43.765625 118.375 -47.296875 C 124.03125 -50.835938 128.519531 -55.648438 131.84375 -61.734375 C 135.164062 -67.816406 136.828125 -74.390625 136.828125 -81.453125 C 136.828125 -88.671875 135.164062 -95.285156 131.84375 -101.296875 C 128.519531 -107.304688 124.03125 -112.078125 118.375 -115.609375 C 112.71875 -119.148438 106.566406 -120.921875 99.921875 -120.921875 C 93.265625 -120.921875 87.109375 -119.148438 81.453125 -115.609375 C 75.796875 -112.078125 71.34375 -107.304688 68.09375 -101.296875 C 64.84375 -95.285156 63.21875 -88.671875 63.21875 -81.453125 C 63.21875 -74.390625 64.84375 -67.816406 68.09375 -61.734375 C 71.34375 -55.648438 75.796875 -50.835938 81.453125 -47.296875 C 87.109375 -43.765625 93.265625 -42 99.921875 -42 Z M 99.921875 -42 "/></g></g><g style="fill:#7a987d;fill-opacity:1;"><g transform="translate(1164.576289, 444.470582)"><path style="stroke:none" d="M 120.921875 -168.4375 C 132.367188 -168.4375 142.898438 -165.640625 152.515625 -160.046875 C 162.140625 -154.460938 169.8125 -146.117188 175.53125 -135.015625 C 181.257812 -123.921875 184.125 -110.453125 184.125 -94.609375 L 184.125 0 L 131.515625 0 L 131.515625 -89.515625 C 131.515625 -101.253906 128.929688 -109.421875 123.765625 -114.015625 C 118.609375 -118.617188 112.425781 -120.921875 105.21875 -120.921875 C 100.832031 -120.921875 96.234375 -119.785156 91.421875 -117.515625 C 86.617188 -115.253906 82.445312 -111.398438 78.90625 -105.953125 C 75.375 -100.515625 73.609375 -93.269531 73.609375 -84.21875 L 73.609375 0 L 21 0 L 21 -163.125 L 73.609375 -163.125 L 73.609375 -147.21875 C 79.265625 -153.863281 86.226562 -159.0625 94.5 -162.8125 C 102.78125 -166.5625 111.585938 -168.4375 120.921875 -168.4375 Z M 120.921875 -168.4375 "/></g></g></g></svg>