<svg xmlns="http://www.w3.org/2000/svg" xmlns:xlink="http://www.w3.org/1999/xlink" width="1080" zoomAndPan="magnify" viewBox="0 0 810 809.999993" height="1080" preserveAspectRatio="xMidYMid meet" version="1.2"><defs><clipPath id="6809df7868"><path d="M 225 23.984375 L 582 23.984375 L 582 422 L 225 422 Z M 225 23.984375 "/></clipPath><clipPath id="4a0a8e02bd"><path d="M 63 472 L 744 472 L 744 783.734375 L 63 783.734375 Z M 63 472 "/></clipPath></defs><g id="5870a58854"><g clip-rule="nonzero" clip-path="url(#6809df7868)"><path style=" stroke:none;fill-rule:nonzero;fill:#ffffff;fill-opacity:1;" d="M 403.671875 23.984375 C 305.425781 23.984375 225.523438 113.054688 225.523438 222.566406 C 225.523438 332.335938 305.425781 421.410156 403.671875 421.410156 C 501.914062 421.410156 581.820312 332.335938 581.820312 222.566406 C 581.820312 113.054688 501.914062 23.984375 403.671875 23.984375 Z M 403.671875 23.984375 "/></g><g clip-rule="nonzero" clip-path="url(#4a0a8e02bd)"><path style=" stroke:none;fill-rule:nonzero;fill:#ffffff;fill-opacity:1;" d="M 541.734375 472.757812 C 536.496094 471.972656 530.992188 474.332031 528.375 479.046875 C 499.820312 525.15625 453.1875 552.925781 403.671875 552.925781 C 354.15625 552.925781 307.523438 525.15625 278.964844 479.046875 C 276.347656 474.332031 270.84375 471.972656 265.605469 472.757812 C 148.5 494.503906 63.355469 596.675781 63.355469 716.140625 L 63.355469 733.429688 C 63.355469 761.203125 85.886719 783.734375 113.65625 783.734375 L 693.6875 783.734375 C 721.457031 783.734375 743.984375 761.203125 743.984375 733.429688 L 743.984375 716.140625 C 743.984375 596.675781 658.839844 494.503906 541.734375 472.757812 Z M 541.734375 472.757812 "/></g></g></svg>